<svg xmlns="http://www.w3.org/2000/svg" width="40" height="40" viewBox="0 0 39.311 41.734"><path id="Trazado_7367" data-name="Trazado 7367" d="M35,32.5c-.073-.026-.148-.051-.221-.073a10.67,10.67,0,0,0-3.455-.51,27.038,27.038,0,0,0-6.286.732A57.026,57.026,0,0,0,19.4,34.232l7.349-18.885-.215,1.568a2.22,2.22,0,0,0,1.9,2.5,2.16,2.16,0,0,0,.542.008,2.362,2.362,0,0,0,.342-.062,2.227,2.227,0,0,0,1.615-1.846l.847-6.18a2.228,2.228,0,0,0-1.9-2.5.715.715,0,0,0-.078,0V8.825l-6.658-.658,0,0a2.382,2.382,0,0,0-.346.01,2.228,2.228,0,0,0-.584.144L10.225,13.073A2.222,2.222,0,0,0,8.983,15.96,2.209,2.209,0,0,0,11.866,17.2l6.589-2.61L13.064,26.559a2.232,2.232,0,0,0,1.1,2.948,2.265,2.265,0,0,0,1.164.187,2.213,2.213,0,0,0,1.315-.631l-1.386,3.562a2.208,2.208,0,0,0,.038,1.7,2.182,2.182,0,0,0,.929,1.025c-1.155.427-2.29.863-3.425,1.287-3.076,1.148-6.461,2.18-9.738,3.251A9.556,9.556,0,0,0,.918,40.982a5.9,5.9,0,0,0-.82.588c.031-.032-.266.243.045.14,2.959-.97,5.99-1.905,8.841-2.916,1.7-.6,3.3-1.235,4.98-1.843,2.051-.741,4.194-1.454,6.535-2.081a30.754,30.754,0,0,1,6.728-1.131,11.675,11.675,0,0,1,6.189,1.321,17.141,17.141,0,0,1,1.481.923c.176.128.342.252.51.379l.012-.012c.227.165.461.337.7.525.32.252,3.484-1.578,3.169-1.855A12.871,12.871,0,0,0,35,32.5M27.045,8.182a4.1,4.1,0,1,0-4.524-3.631,4.108,4.108,0,0,0,4.524,3.631" transform="translate(0 0)" fill="#169ab2"></path></svg>