<svg xmlns="http://www.w3.org/2000/svg" width="233.16" height="41.734" viewBox="0 0 233.16 41.734"><g transform="translate(-17.92 -73.942)"><path d="M75.14,44.694a.341.341,0,0,0,.151.185.311.311,0,0,0,.169.051.337.337,0,0,0,.084-.011.309.309,0,0,0,.2-.155l.57-.979.007-.013a.352.352,0,0,0,.02-.232.305.305,0,0,0-.151-.205.314.314,0,0,0-.26-.037.324.324,0,0,0-.2.151l-.571.993-.006.012a.361.361,0,0,0-.018.229l0,.012m-.974-.609a.323.323,0,0,0-.1.235v1.2a2.545,2.545,0,0,0-.362-.254,1.67,1.67,0,0,0-.762-.213,1.612,1.612,0,0,0-.674.147,1.774,1.774,0,0,0-.562.385,1.865,1.865,0,0,0-.386.562,1.731,1.731,0,0,0-.144.694,1.693,1.693,0,0,0,.142.685,1.8,1.8,0,0,0,.378.559,1.719,1.719,0,0,0,.562.382,1.8,1.8,0,0,0,1.809-.235v.052a.315.315,0,0,0,.092.231.343.343,0,0,0,.472.008.307.307,0,0,0,.1-.239v-3.96a.315.315,0,0,0-.1-.237.346.346,0,0,0-.471,0m-.185,3.183h0a1.091,1.091,0,0,1-.235.352,1.162,1.162,0,0,1-.355.238,1.059,1.059,0,0,1-.428.086,1.1,1.1,0,0,1-.434-.087,1.131,1.131,0,0,1-.357-.238,1.1,1.1,0,0,1-.238-.353,1.081,1.081,0,0,1-.088-.432,1.109,1.109,0,0,1,.088-.433,1.143,1.143,0,0,1,.238-.356,1.1,1.1,0,0,1,.356-.238,1.117,1.117,0,0,1,.855,0,1.1,1.1,0,0,1,.344.229,1.2,1.2,0,0,1,.239.357,1.266,1.266,0,0,1,.1.444,1.072,1.072,0,0,1-.089.432m1.47-2.184a.343.343,0,0,0-.237.1.33.33,0,0,0-.093.235V48.28a.321.321,0,0,0,.095.234.314.314,0,0,0,.235.1.307.307,0,0,0,.232-.09.319.319,0,0,0,.1-.239V45.417a.334.334,0,0,0-.1-.243.342.342,0,0,0-.232-.091M61.939,43.989a.338.338,0,0,0-.24.1.33.33,0,0,0-.093.233v3.96a.325.325,0,0,0,.095.235.318.318,0,0,0,.238.095.309.309,0,0,0,.232-.091.316.316,0,0,0,.1-.238v-3.96a.319.319,0,0,0-.095-.235.327.327,0,0,0-.235-.095m-2.457.229a.4.4,0,0,0-.114-.152.3.3,0,0,0-.4,0,.414.414,0,0,0-.108.15l-1.705,3.929a.3.3,0,0,0,0,.26.349.349,0,0,0,.189.182.33.33,0,0,0,.254-.013.376.376,0,0,0,.169-.174l.516-1.182h1.769l.518,1.182a.351.351,0,0,0,.174.177.318.318,0,0,0,.135.03.353.353,0,0,0,.114-.019L61,48.582a.357.357,0,0,0,.176-.176.312.312,0,0,0,0-.257Zm-.914,2.333.6-1.35.592,1.35Zm11.619-2.466a.324.324,0,0,0-.1.235v3.96a.327.327,0,0,0,.335.329.307.307,0,0,0,.232-.092.321.321,0,0,0,.1-.238v-3.96a.325.325,0,0,0-.095-.236.346.346,0,0,0-.473,0m-4.675,3.457a.306.306,0,0,0-.234.095,1.2,1.2,0,0,1-.356.233,1.045,1.045,0,0,1-.425.083,1.069,1.069,0,0,1-.432-.086,1.152,1.152,0,0,1-.353-.238,1.113,1.113,0,0,1-.238-.353,1.113,1.113,0,0,1,0-.862,1.136,1.136,0,0,1,.235-.358,1.262,1.262,0,0,1,.353-.24,1.156,1.156,0,0,1,.434-.086,1.087,1.087,0,0,1,.426.084,1.31,1.31,0,0,1,.35.218.331.331,0,0,0,.472,0,.261.261,0,0,0,.075-.288.4.4,0,0,0-.106-.184c-.041-.037-.092-.076-.154-.125l-.033-.026a1.83,1.83,0,0,0-.267-.162,1.958,1.958,0,0,0-.337-.133,1.5,1.5,0,0,0-.417-.055h0a2,2,0,0,0-.708.152,1.814,1.814,0,0,0-.94.943,1.833,1.833,0,0,0,.006,1.394,1.7,1.7,0,0,0,.381.562,1.754,1.754,0,0,0,1.253.5,1.578,1.578,0,0,0,.42-.047,1.631,1.631,0,0,0,.353-.12,1.778,1.778,0,0,0,.278-.161,2.121,2.121,0,0,0,.174-.15.351.351,0,0,0,.119-.253.314.314,0,0,0-.091-.235.308.308,0,0,0-.238-.1m3.6-1.96a1.756,1.756,0,0,0-2.886.561,1.844,1.844,0,0,0,0,1.4,1.8,1.8,0,0,0,.383.561,1.824,1.824,0,0,0,.563.369,1.8,1.8,0,0,0,.689.134,1.524,1.524,0,0,0,.75-.2,2.522,2.522,0,0,0,.364-.258v.135a.349.349,0,0,0,.1.243.343.343,0,0,0,.236.09.329.329,0,0,0,.331-.334V46.836a1.721,1.721,0,0,0-.144-.7,1.843,1.843,0,0,0-.385-.559m-.238,1.7h0a1.107,1.107,0,0,1-.24.35,1.122,1.122,0,0,1-.35.233,1.107,1.107,0,0,1-.852,0,1.154,1.154,0,0,1-.352-.237,1.1,1.1,0,0,1-.238-.355,1.042,1.042,0,0,1-.089-.43,1.067,1.067,0,0,1,.089-.433,1.175,1.175,0,0,1,.236-.356,1.1,1.1,0,0,1,.784-.324,1.12,1.12,0,0,1,.435.087,1.085,1.085,0,0,1,.353.237,1.137,1.137,0,0,1,.238.357,1.1,1.1,0,0,1,.089.426,1.319,1.319,0,0,1-.1.449m43.248-2.4a.3.3,0,0,0,.249.038.321.321,0,0,0,.2-.155l.57-.979.008-.016a.388.388,0,0,0,.018-.229.3.3,0,0,0-.153-.2.318.318,0,0,0-.261-.037.326.326,0,0,0-.193.151l-.571.993-.007.014a.339.339,0,0,0-.015.231.321.321,0,0,0,.157.2m-2.386-.8a.328.328,0,0,0-.1.234v3.96a.317.317,0,0,0,.094.232.313.313,0,0,0,.239.1.3.3,0,0,0,.234-.092.325.325,0,0,0,.1-.237v-3.96a.33.33,0,0,0-.1-.234.344.344,0,0,0-.474,0m1.41-.1a.333.333,0,0,0-.242.1.34.34,0,0,0-.092.23v3.96a.339.339,0,0,0,.094.232.315.315,0,0,0,.24.1.307.307,0,0,0,.233-.092.321.321,0,0,0,.1-.237v-3.96a.328.328,0,0,0-.332-.33m1.133,1.095a.351.351,0,0,0-.24.1.331.331,0,0,0-.095.235V48.28a.328.328,0,0,0,.335.329.3.3,0,0,0,.232-.092.322.322,0,0,0,.1-.237V45.417a.342.342,0,0,0-.1-.241.334.334,0,0,0-.231-.092m3.361.78h0a1.408,1.408,0,0,0-.29-.433,1.381,1.381,0,0,0-.962-.394,1.278,1.278,0,0,0-.482.091,1.413,1.413,0,0,0-.224.111.37.37,0,0,0-.079-.114.344.344,0,0,0-.468.007.33.33,0,0,0-.093.238v2.91a.321.321,0,0,0,.095.235.343.343,0,0,0,.47,0,.32.32,0,0,0,.1-.238V46.362a.71.71,0,0,1,.057-.251.605.605,0,0,1,.144-.206.757.757,0,0,1,.219-.144.663.663,0,0,1,.525,0,.677.677,0,0,1,.219.145.815.815,0,0,1,.152.22.693.693,0,0,1,.054.265V48.28a.323.323,0,0,0,.095.234.318.318,0,0,0,.237.1.307.307,0,0,0,.235-.094.314.314,0,0,0,.1-.235V46.391a1.34,1.34,0,0,0-.106-.527m-6.591.252a1.774,1.774,0,0,0-.386-.553,1.964,1.964,0,0,0-.554-.375,1.721,1.721,0,0,0-.673-.139h0a2.053,2.053,0,0,0-.705.159,1.791,1.791,0,0,0-.56.381,1.7,1.7,0,0,0-.38.563,1.845,1.845,0,0,0,0,1.392,1.717,1.717,0,0,0,.383.561,1.785,1.785,0,0,0,1.249.5,2.017,2.017,0,0,0,.7-.117,1.4,1.4,0,0,0,.557-.39.333.333,0,0,0,.1-.232.342.342,0,0,0-.1-.24.351.351,0,0,0-.471,0,1.144,1.144,0,0,1-.354.234,1.111,1.111,0,0,1-1.392-.479.959.959,0,0,1-.1-.226h2.511a.338.338,0,0,0,.231-.091.3.3,0,0,0,.1-.275,1.822,1.822,0,0,0-.16-.675m-2.674.374a1.107,1.107,0,0,1,.339-.5,1.118,1.118,0,0,1,.331-.2,1.078,1.078,0,0,1,.769,0,1.141,1.141,0,0,1,.328.193,1.179,1.179,0,0,1,.246.287,1.2,1.2,0,0,1,.1.216Zm-27.167-.908a1.782,1.782,0,0,0-.559-.385,1.746,1.746,0,0,0-1.388-.008,1.773,1.773,0,0,0-.566.386,1.828,1.828,0,0,0-.376.569,1.786,1.786,0,0,0-.135.692,1.739,1.739,0,0,0,.14.706,1.691,1.691,0,0,0,.384.562,1.782,1.782,0,0,0,1.249.5,1.531,1.531,0,0,0,.751-.2,2.474,2.474,0,0,0,.364-.258v.135a.354.354,0,0,0,.1.242.337.337,0,0,0,.233.092.316.316,0,0,0,.235-.1.334.334,0,0,0,.1-.238V46.836a1.689,1.689,0,0,0-.145-.694,1.8,1.8,0,0,0-.384-.561m-.24,1.693v.005a1.078,1.078,0,0,1-.238.348,1.107,1.107,0,0,1-1.2.231,1.122,1.122,0,0,1-.591-.59,1.1,1.1,0,0,1-.085-.433,1.117,1.117,0,0,1,.084-.432,1.258,1.258,0,0,1,.239-.358,1.136,1.136,0,0,1,.351-.238,1.129,1.129,0,0,1,.865,0,1.078,1.078,0,0,1,.356.238,1.128,1.128,0,0,1,.328.782,1.191,1.191,0,0,1-.1.446m25.773-3.189a.322.322,0,0,0-.1.234v1.194a2.511,2.511,0,0,0-.36-.251,1.7,1.7,0,0,0-.759-.213,1.612,1.612,0,0,0-.678.148,1.857,1.857,0,0,0-.946.946,1.708,1.708,0,0,0-.144.694,1.687,1.687,0,0,0,.142.687,1.927,1.927,0,0,0,.376.558,1.74,1.74,0,0,0,.564.381,1.792,1.792,0,0,0,1.383.012,1.774,1.774,0,0,0,.422-.244v.051a.328.328,0,0,0,.334.329.3.3,0,0,0,.235-.095.315.315,0,0,0,.1-.235v-3.96a.313.313,0,0,0-.1-.232.339.339,0,0,0-.473,0m-.183,3.183a1.1,1.1,0,0,1-.239.353,1.119,1.119,0,0,1-.356.238,1.058,1.058,0,0,1-.426.086,1.1,1.1,0,0,1-.435-.087,1.156,1.156,0,0,1-.356-.238,1.064,1.064,0,0,1-.239-.352,1.089,1.089,0,0,1-.087-.432,1.109,1.109,0,0,1,.087-.433,1.12,1.12,0,0,1,.595-.595,1.112,1.112,0,0,1,.435-.087,1.091,1.091,0,0,1,.42.084,1.033,1.033,0,0,1,.343.229,1.167,1.167,0,0,1,.24.355,1.3,1.3,0,0,1,.1.445,1.076,1.076,0,0,1-.085.432M89.771,46.115a1.782,1.782,0,0,0-.387-.552,1.962,1.962,0,0,0-.552-.375,1.719,1.719,0,0,0-.676-.139h0a2.024,2.024,0,0,0-.7.16,1.868,1.868,0,0,0-.564.381,1.8,1.8,0,0,0-.37,1.953,1.71,1.71,0,0,0,.382.562,1.765,1.765,0,0,0,.562.369,1.785,1.785,0,0,0,.688.134,2,2,0,0,0,.7-.117,1.364,1.364,0,0,0,.551-.386.331.331,0,0,0-.232-.57.334.334,0,0,0-.236.093,1.078,1.078,0,0,1-.353.233,1.1,1.1,0,0,1-.426.083,1.016,1.016,0,0,1-.389-.072,1.072,1.072,0,0,1-.33-.191,1.149,1.149,0,0,1-.248-.3,1.079,1.079,0,0,1-.1-.228H89.6a.363.363,0,0,0,.236-.094.3.3,0,0,0,.095-.271,1.733,1.733,0,0,0-.157-.677M87.1,46.49a1.262,1.262,0,0,1,.1-.216,1.057,1.057,0,0,1,.242-.287,1.13,1.13,0,0,1,.329-.194,1.018,1.018,0,0,1,.385-.071,1.006,1.006,0,0,1,.386.072,1.135,1.135,0,0,1,.328.193,1.093,1.093,0,0,1,.246.29,1.022,1.022,0,0,1,.1.213Zm-1.4-2.5a.322.322,0,0,0-.238.1.328.328,0,0,0-.095.233v1.2a2.447,2.447,0,0,0-.361-.254,1.672,1.672,0,0,0-.762-.213,1.639,1.639,0,0,0-.676.148,1.754,1.754,0,0,0-.559.384,1.844,1.844,0,0,0-.387.561,1.75,1.75,0,0,0,0,1.381,1.876,1.876,0,0,0,.378.559,1.763,1.763,0,0,0,.562.381,1.794,1.794,0,0,0,1.383.011,1.775,1.775,0,0,0,.426-.247v.054a.319.319,0,0,0,.092.23.343.343,0,0,0,.476.006.322.322,0,0,0,.1-.236v-3.96a.327.327,0,0,0-.332-.33m-.421,3.279a1.125,1.125,0,0,1-.236.351,1.143,1.143,0,0,1-.356.24,1.117,1.117,0,0,1-1.218-.238,1.1,1.1,0,0,1-.326-.784,1.119,1.119,0,0,1,.087-.433,1.154,1.154,0,0,1,.24-.357,1.092,1.092,0,0,1,.354-.238,1.128,1.128,0,0,1,.433-.086,1.085,1.085,0,0,1,.766.314,1.207,1.207,0,0,1,.24.357,1.27,1.27,0,0,1,.1.443,1.083,1.083,0,0,1-.088.432m11.831-2.983v-.01a.351.351,0,0,0-.106-.2.337.337,0,0,0-.536.115l-1.274,3.193-1.279-3.194a.313.313,0,0,0-.312-.2.328.328,0,0,0-.334.279l-.56,3.965a.316.316,0,0,0,.075.264.374.374,0,0,0,.249.112.328.328,0,0,0,.331-.287l.391-2.735,1.126,2.8a.4.4,0,0,0,.1.151.294.294,0,0,0,.406.009.366.366,0,0,0,.118-.158l1.1-2.751.329,2.7a.351.351,0,0,0,.118.2.368.368,0,0,0,.232.073H97.3a.329.329,0,0,0,.211-.1.286.286,0,0,0,.079-.26Zm4.138,1.831h0a1.837,1.837,0,0,0-.387-.554,1.985,1.985,0,0,0-.556-.375,1.665,1.665,0,0,0-.674-.139,2.054,2.054,0,0,0-.7.16,1.879,1.879,0,0,0-.564.381,1.677,1.677,0,0,0-.374.56,1.777,1.777,0,0,0,.386,1.955,1.775,1.775,0,0,0,1.249.5,2.012,2.012,0,0,0,.7-.117,1.412,1.412,0,0,0,.559-.391.336.336,0,0,0,.1-.231.346.346,0,0,0-.1-.242.331.331,0,0,0-.234-.092.324.324,0,0,0-.234.092,1.1,1.1,0,0,1-.782.317,1.026,1.026,0,0,1-.391-.072,1.047,1.047,0,0,1-.328-.192,1.083,1.083,0,0,1-.245-.3,1.049,1.049,0,0,1-.1-.227h2.512a.349.349,0,0,0,.232-.092.3.3,0,0,0,.1-.273,1.787,1.787,0,0,0-.157-.675m-2.675.374a1.136,1.136,0,0,1,.1-.218,1.051,1.051,0,0,1,.235-.283,1.2,1.2,0,0,1,.335-.2,1.08,1.08,0,0,1,.77,0,1.15,1.15,0,0,1,.329.193,1.206,1.206,0,0,1,.246.285,1.411,1.411,0,0,1,.1.218Z" transform="translate(2.677 62.392)" fill="#169ab2"/><path d="M35,32.5c-.073-.026-.148-.051-.221-.073a10.67,10.67,0,0,0-3.455-.51,27.038,27.038,0,0,0-6.286.732A57.026,57.026,0,0,0,19.4,34.232l7.349-18.885-.215,1.568a2.22,2.22,0,0,0,1.9,2.5,2.16,2.16,0,0,0,.542.008,2.362,2.362,0,0,0,.342-.062,2.227,2.227,0,0,0,1.615-1.846l.847-6.18a2.228,2.228,0,0,0-1.9-2.5.715.715,0,0,0-.078,0V8.825l-6.658-.658,0,0a2.382,2.382,0,0,0-.346.01,2.228,2.228,0,0,0-.584.144L10.225,13.073A2.222,2.222,0,0,0,8.983,15.96,2.209,2.209,0,0,0,11.866,17.2l6.589-2.61L13.064,26.559a2.232,2.232,0,0,0,1.1,2.948,2.265,2.265,0,0,0,1.164.187,2.213,2.213,0,0,0,1.315-.631l-1.386,3.562a2.208,2.208,0,0,0,.038,1.7,2.182,2.182,0,0,0,.929,1.025c-1.155.427-2.29.863-3.425,1.287-3.076,1.148-6.461,2.18-9.738,3.251A9.556,9.556,0,0,0,.918,40.982a5.9,5.9,0,0,0-.82.588c.031-.032-.266.243.045.14,2.959-.97,5.99-1.905,8.841-2.916,1.7-.6,3.3-1.235,4.98-1.843,2.051-.741,4.194-1.454,6.535-2.081a30.754,30.754,0,0,1,6.728-1.131,11.675,11.675,0,0,1,6.189,1.321,17.141,17.141,0,0,1,1.481.923c.176.128.342.252.51.379l.012-.012c.227.165.461.337.7.525.32.252,3.484-1.578,3.169-1.855A12.871,12.871,0,0,0,35,32.5M27.045,8.182a4.1,4.1,0,1,0-4.524-3.631,4.108,4.108,0,0,0,4.524,3.631" transform="translate(17.92 73.942)" fill="#169ab2"/><path d="M56.5,8.678a8.2,8.2,0,0,0-3.206.558,5.947,5.947,0,0,0-2.239,1.63,1.946,1.946,0,0,0-.587-1.445,2.264,2.264,0,0,0-1.6-.521,2.858,2.858,0,0,0-2.015.816,3.433,3.433,0,0,0-1.043,2.12L43.912,26.1l0,.034a2.688,2.688,0,0,0,.478,2.139,2.206,2.206,0,0,0,1.8.8,2.863,2.863,0,0,0,2.032-.8,3.5,3.5,0,0,0,1.029-2.169l1.233-9.269a4.462,4.462,0,0,1,1.236-2.612,3.569,3.569,0,0,1,2.664-1.061,3.159,3.159,0,0,1,2.345.91,3.12,3.12,0,0,1,.657,2.728l-1.243,9.342a2.68,2.68,0,0,0,.477,2.131,2.2,2.2,0,0,0,1.8.8,2.859,2.859,0,0,0,2.036-.8A3.514,3.514,0,0,0,61.487,26.1l1.357-10.213a6.1,6.1,0,0,0-1.371-5.312,6.565,6.565,0,0,0-4.974-1.9m45.955,2.5a7.5,7.5,0,0,0-5.919-2.459,9.922,9.922,0,0,0-7.312,3.132A12.421,12.421,0,0,0,85.6,19.061a9.17,9.17,0,0,0,1.787,7.32,8.353,8.353,0,0,0,6.863,2.913c.271,0,.552-.017.839-.036s.582-.054.882-.077A14.88,14.88,0,0,0,101,27.55q2.352-1.259,2.552-2.741a2.026,2.026,0,0,0-.457-1.578,1.755,1.755,0,0,0-1.424-.722,2.722,2.722,0,0,0-1.2.334c-.449.221-.94.471-1.47.742a14.63,14.63,0,0,1-1.712.74,5.622,5.622,0,0,1-1.953.336,5.309,5.309,0,0,1-3.175-.946,3.451,3.451,0,0,1-1.35-2.947H102.2a2.646,2.646,0,0,0,1.861-.593,2.876,2.876,0,0,0,.793-1.775,7.2,7.2,0,0,0,.063-.9c0-.311,0-.612-.011-.911a9.326,9.326,0,0,0-2.451-5.413M91.181,17.209a5.578,5.578,0,0,1,1.7-2.864,4.381,4.381,0,0,1,3.066-1.181,3.38,3.38,0,0,1,2.794,1.169,4.438,4.438,0,0,1,.933,2.877ZM85.8,3.265l0,.035v0Zm32.971,6.343a2.341,2.341,0,0,0-1.688-.707,4.305,4.305,0,0,0-2.208.554,7.044,7.044,0,0,0-1.826,1.637l-.083.034c.118-.865-.059-1.451-.524-1.76a3.125,3.125,0,0,0-1.773-.466h-.185a3.531,3.531,0,0,0-1.859.743,2.724,2.724,0,0,0-1.051,1.894L105.645,26.1l-.007.034a2.68,2.68,0,0,0,.479,2.139,2.2,2.2,0,0,0,1.8.8,2.861,2.861,0,0,0,2.033-.8,3.5,3.5,0,0,0,1.029-2.173l1.089-8.173a3.007,3.007,0,0,1,1.284-2.263,16.526,16.526,0,0,1,2.3-1.268.08.08,0,0,0,.059-.016.072.072,0,0,1,.056-.018c.238-.1.472-.2.706-.282s.452-.165.661-.238a6.2,6.2,0,0,0,1.432-.726,1.853,1.853,0,0,0,.735-1.355,2.418,2.418,0,0,0-.528-2.155M85.343,1.154A2.162,2.162,0,0,0,83.524.336a2.843,2.843,0,0,0-2.015.818,3.425,3.425,0,0,0-1.045,2.111l-.968,7.3a5.942,5.942,0,0,0-2.17-1.391,7.676,7.676,0,0,0-2.663-.463,8.264,8.264,0,0,0-6.718,3.132,14.689,14.689,0,0,0-3.219,6.917c-.01.073-.021.153-.029.239s-.026.181-.04.276a10.061,10.061,0,0,0,1.457,6.9,6.586,6.586,0,0,0,6,3.117c.172,0,.353-.007.54-.021s.37-.029.545-.054a8.8,8.8,0,0,0,2.29-.779,5.031,5.031,0,0,0,1.838-1.556,2.621,2.621,0,0,0,.7,1.61,2.27,2.27,0,0,0,1.686.576,2.861,2.861,0,0,0,2.032-.8,3.506,3.506,0,0,0,1.03-2.169L85.8,3.3a2.774,2.774,0,0,0-.457-2.146m-6.921,17.5a1.458,1.458,0,0,0-.026.185l-.005.038c-.019.147-.045.3-.078.443s-.057.3-.077.445a7.934,7.934,0,0,1-1.613,3.208,3.878,3.878,0,0,1-3.16,1.465,2.858,2.858,0,0,1-2.652-1.392,5.808,5.808,0,0,1-.836-3.056,3.652,3.652,0,0,1,.007-.465c.007-.158.023-.318.043-.464s.044-.3.08-.465.073-.312.117-.466a7.825,7.825,0,0,1,1.655-3.112A3.814,3.814,0,0,1,74.9,13.613a2.953,2.953,0,0,1,2.886,1.575,6.181,6.181,0,0,1,.634,3.466" transform="translate(6.213 73.853)" fill="#169ab2"/><path d="M145.582,4.958A1.7,1.7,0,1,1,143.9,3.3a1.664,1.664,0,0,1,1.683,1.653m-2.97,0A1.287,1.287,0,0,0,143.9,6.279a1.266,1.266,0,0,0,1.258-1.312,1.274,1.274,0,1,0-2.545-.01m1.016.856h-.382V4.162a4.711,4.711,0,0,1,.633-.048.853.853,0,0,1,.563.13.41.41,0,0,1,.172.354.424.424,0,0,1-.342.391v.018c.161.053.24.183.29.4a1.429,1.429,0,0,0,.122.4h-.4a1.347,1.347,0,0,1-.131-.4c-.03-.169-.13-.251-.342-.251h-.182Zm.01-.926h.182c.212,0,.382-.069.382-.241,0-.15-.111-.249-.351-.249a1.282,1.282,0,0,0-.213.017Z" transform="translate(-20.024 73.06)" fill="#169ab2"/><rect width="1.797" height="6.364" transform="translate(147.493 81.814)" fill="#169ab2"/><path d="M185.526,14.587v3.047h-1.7V15a.724.724,0,0,0-.723-.787.684.684,0,0,0-.685.732v2.686h-1.788V12.845h1.788v.482a1.691,1.691,0,0,1,1.353-.592,1.738,1.738,0,0,1,1.76,1.853" transform="translate(-30.281 70.544)" fill="#169ab2"/><path d="M188.05,17.022l.667-1.084a3.234,3.234,0,0,0,1.658.566c.333,0,.454-.084.454-.241s-.279-.26-.723-.352c-.871-.185-1.843-.4-1.843-1.529,0-.926.75-1.649,2-1.649a3.712,3.712,0,0,1,2,.631l-.6,1.092a2.857,2.857,0,0,0-1.4-.509c-.25,0-.417.129-.417.268,0,.158.213.185.7.3.871.2,1.871.482,1.871,1.611,0,.991-.787,1.621-2.084,1.621a3.841,3.841,0,0,1-2.279-.722" transform="translate(-32.262 70.544)" fill="#169ab2"/><path d="M197.983,16.815a1.921,1.921,0,0,1-1.232.49,1.551,1.551,0,0,1-1.621-1.621V13.814h-.6V12.405h.6V11.09h1.7v1.315h.945v1.408h-.945v1.52a.435.435,0,0,0,.408.49.7.7,0,0,0,.436-.139Z" transform="translate(-33.991 70.983)" fill="#169ab2"/><path d="M200.224,10.6a.917.917,0,1,1,.925.927.925.925,0,0,1-.925-.927m.018,1.435h1.787V16.82h-1.787Z" transform="translate(-35.511 71.357)" fill="#169ab2"/><path d="M207.074,16.815a1.921,1.921,0,0,1-1.232.49,1.551,1.551,0,0,1-1.621-1.621V13.814h-.6V12.405h.6V11.09h1.7v1.315h.945v1.408h-.945v1.52a.435.435,0,0,0,.408.49.7.7,0,0,0,.435-.139Z" transform="translate(-36.417 70.983)" fill="#169ab2"/><path d="M214.151,12.885v4.789h-1.787v-.482a1.693,1.693,0,0,1-1.353.593,1.738,1.738,0,0,1-1.76-1.853V12.885h1.705v2.631a.724.724,0,0,0,.722.787.685.685,0,0,0,.686-.732V12.885Z" transform="translate(-37.92 70.504)" fill="#169ab2"/><path d="M220.258,16.815a1.921,1.921,0,0,1-1.232.49,1.551,1.551,0,0,1-1.621-1.621V13.814h-.6V12.405h.6V11.09h1.7v1.315h.945v1.408h-.945v1.52a.435.435,0,0,0,.408.49.7.7,0,0,0,.435-.139Z" transform="translate(-39.935 70.983)" fill="#169ab2"/><path d="M222.168,15.235a2.708,2.708,0,0,1,5.4,0,2.707,2.707,0,0,1-5.4,0m3.733,0a1.033,1.033,0,1,0-1.028,1.028,1.036,1.036,0,0,0,1.028-1.028" transform="translate(-41.367 70.544)" fill="#169ab2"/><path d="M239.158,10.586V17.06h-1.787V16.5a2,2,0,0,1-1.529.676,2.271,2.271,0,0,1-2.2-2.51,2.268,2.268,0,0,1,2.2-2.5,2,2,0,0,1,1.529.677V10.586Zm-1.787,4.076a.954.954,0,0,0-.963-1.019,1.024,1.024,0,1,0,0,2.047.957.957,0,0,0,.963-1.028" transform="translate(-44.43 71.117)" fill="#169ab2"/><path d="M245.739,16.012l.982.99a2.962,2.962,0,0,1-1.972.741,2.46,2.46,0,0,1-2.6-2.519,2.408,2.408,0,0,1,2.529-2.492c1.538,0,2.446,1.084,2.446,2.927h-3.39a.982.982,0,0,0,.944.751,1.767,1.767,0,0,0,1.065-.4m-1.982-1.287H245.5a.871.871,0,0,0-.825-.658.974.974,0,0,0-.917.658" transform="translate(-46.698 70.544)" fill="#169ab2"/><path d="M176.685,25.891h2.372c2.223,0,3.8,1.315,3.8,3.177s-1.575,3.186-3.8,3.186h-2.372Zm2.668,4.733a1.554,1.554,0,1,0,0-3.1h-.87v3.1Z" transform="translate(-29.229 67.033)" fill="#169ab2"/><path d="M189.46,31.166l.982.99a2.962,2.962,0,0,1-1.972.741,2.46,2.46,0,0,1-2.6-2.519,2.408,2.408,0,0,1,2.529-2.492c1.538,0,2.446,1.084,2.446,2.927h-3.39a.982.982,0,0,0,.944.751,1.768,1.768,0,0,0,1.065-.4m-1.982-1.287h1.742a.871.871,0,0,0-.825-.658.974.974,0,0,0-.917.658" transform="translate(-31.679 66.5)" fill="#169ab2"/><path d="M199.131,30.388a2.271,2.271,0,0,1-2.2,2.51,2,2,0,0,1-1.528-.676V34.38H193.62V28h1.787v.565a2,2,0,0,1,1.528-.676,2.268,2.268,0,0,1,2.2,2.5m-1.7,0a1,1,0,0,0-1.056-1.019,1.025,1.025,0,0,0,0,2.047,1,1,0,0,0,1.056-1.028" transform="translate(-33.748 66.5)" fill="#169ab2"/><path d="M201.826,30.388a2.707,2.707,0,1,1,2.705,2.51,2.636,2.636,0,0,1-2.705-2.51m3.733,0a1.033,1.033,0,1,0-1.028,1.028,1.036,1.036,0,0,0,1.028-1.028" transform="translate(-35.938 66.5)" fill="#169ab2"/><path d="M213.45,27.887v1.482a1.328,1.328,0,0,0-1.5,1.39v2.029h-1.787V28h1.787v.853a1.689,1.689,0,0,1,1.5-.963" transform="translate(-38.163 66.5)" fill="#169ab2"/><path d="M218.516,31.969a1.921,1.921,0,0,1-1.232.49,1.551,1.551,0,0,1-1.621-1.621V28.968h-.6V27.559h.6V26.244h1.7v1.315h.945v1.408h-.945v1.52a.435.435,0,0,0,.408.49.7.7,0,0,0,.435-.139Z" transform="translate(-39.47 66.939)" fill="#169ab2"/><path d="M224.02,31.166l.982.99a2.962,2.962,0,0,1-1.972.741,2.46,2.46,0,0,1-2.6-2.519,2.408,2.408,0,0,1,2.529-2.492c1.538,0,2.446,1.084,2.446,2.927h-3.39a.982.982,0,0,0,.944.751,1.768,1.768,0,0,0,1.065-.4m-1.982-1.287h1.742a.871.871,0,0,0-.825-.658.974.974,0,0,0-.917.658" transform="translate(-40.902 66.5)" fill="#169ab2"/><path d="M227.674,32.175l.667-1.084a3.234,3.234,0,0,0,1.658.566c.333,0,.454-.084.454-.241s-.279-.26-.723-.352c-.871-.185-1.843-.4-1.843-1.529,0-.926.75-1.649,2-1.649a3.712,3.712,0,0,1,2,.631l-.6,1.092a2.857,2.857,0,0,0-1.4-.509c-.25,0-.417.129-.417.268,0,.158.213.185.694.3.872.2,1.872.482,1.872,1.611,0,.992-.787,1.621-2.084,1.621a3.841,3.841,0,0,1-2.279-.722" transform="translate(-42.836 66.5)" fill="#169ab2"/><path d="M237.747,34.106l.361-1.148a1.812,1.812,0,0,0,.676.268.654.654,0,0,0,.482-.148l.093-.185-1.935-4.854h1.824l.982,2.955.925-2.955h1.8l-1.806,4.826a2.166,2.166,0,0,1-1.909,1.63,3.242,3.242,0,0,1-1.49-.389" transform="translate(-45.438 66.46)" fill="#169ab2"/><path d="M252.913,32.255l-1.343-1.917h-.556v1.917h-1.8V25.891h3.048a2.241,2.241,0,0,1,2.436,2.223,2.116,2.116,0,0,1-1.259,1.983l1.519,2.158Zm-1.9-3.548h1.1c.426,0,.732-.25.732-.593s-.306-.592-.732-.592h-1.1Z" transform="translate(-48.585 67.033)" fill="#169ab2"/><path d="M261.195,31.166l.982.99a2.962,2.962,0,0,1-1.972.741,2.46,2.46,0,0,1-2.6-2.519,2.408,2.408,0,0,1,2.529-2.492c1.538,0,2.446,1.084,2.446,2.927h-3.39a.982.982,0,0,0,.944.751,1.767,1.767,0,0,0,1.065-.4m-1.982-1.287h1.742a.871.871,0,0,0-.825-.658.974.974,0,0,0-.917.658" transform="translate(-50.822 66.5)" fill="#169ab2"/><path d="M265.051,30.388a2.644,2.644,0,0,1,2.714-2.5,2.561,2.561,0,0,1,1.992.889l-1.177.963a1.182,1.182,0,0,0-.834-.371,1.015,1.015,0,0,0-.991,1.01,1.028,1.028,0,0,0,1,1.037,1.219,1.219,0,0,0,.853-.379l1.176.944a2.606,2.606,0,0,1-2.047.917,2.639,2.639,0,0,1-2.686-2.51" transform="translate(-52.81 66.5)" fill="#169ab2"/><path d="M275.614,27.887v1.482a1.328,1.328,0,0,0-1.5,1.39v2.029h-1.787V28h1.787v.853a1.689,1.689,0,0,1,1.5-.963" transform="translate(-54.752 66.5)" fill="#169ab2"/><path d="M280.932,31.166l.982.99a2.962,2.962,0,0,1-1.972.741,2.46,2.46,0,0,1-2.6-2.519,2.408,2.408,0,0,1,2.529-2.492c1.538,0,2.446,1.084,2.446,2.927h-3.39a.982.982,0,0,0,.944.751,1.768,1.768,0,0,0,1.065-.4m-1.982-1.287h1.742a.871.871,0,0,0-.825-.658.974.974,0,0,0-.917.658" transform="translate(-56.089 66.5)" fill="#169ab2"/><path d="M289.527,29.962v2.826h-1.713v-.343a1.841,1.841,0,0,1-1.232.454,1.665,1.665,0,0,1-1.842-1.528c0-.935.907-1.594,2.065-1.594a2.757,2.757,0,0,1,1.01.213v-.028c0-.472-.426-.75-.982-.75a2.324,2.324,0,0,0-1.158.324l-.546-1.084a4.815,4.815,0,0,1,2.185-.565,2.056,2.056,0,0,1,2.214,2.075m-1.713,1.408v-.454a1.938,1.938,0,0,0-.76-.148.569.569,0,0,0-.621.556.53.53,0,0,0,.584.518c.426,0,.76-.194.8-.472" transform="translate(-58.064 66.5)" fill="#169ab2"/><path d="M292.2,30.388a2.644,2.644,0,0,1,2.714-2.5,2.561,2.561,0,0,1,1.992.889l-1.177.963a1.179,1.179,0,0,0-.833-.371,1.015,1.015,0,0,0-.991,1.01,1.028,1.028,0,0,0,1,1.037,1.219,1.219,0,0,0,.853-.379l1.176.944a2.607,2.607,0,0,1-2.047.917,2.639,2.639,0,0,1-2.686-2.51" transform="translate(-60.055 66.5)" fill="#169ab2"/><path d="M299.5,25.749a.917.917,0,1,1,.926.926.925.925,0,0,1-.926-.926m.019,1.435h1.787v4.789h-1.787Z" transform="translate(-62.003 67.313)" fill="#169ab2"/><path d="M303.009,29.683a2.707,2.707,0,1,1,2.705,2.51,2.636,2.636,0,0,1-2.705-2.51m2.64-4.437,1.537.26-1.407,1.26h-1.167Zm1.093,4.437a1.033,1.033,0,1,0-1.028,1.028,1.036,1.036,0,0,0,1.028-1.028" transform="translate(-62.94 67.205)" fill="#169ab2"/><path d="M316.243,29.74v3.047h-1.7V30.156a.724.724,0,0,0-.723-.787.684.684,0,0,0-.685.732v2.686h-1.788V28h1.788v.482a1.691,1.691,0,0,1,1.353-.592,1.738,1.738,0,0,1,1.76,1.853" transform="translate(-65.164 66.5)" fill="#169ab2"/><path d="M181.792,40.892v6.474h-1.787V46.8a2,2,0,0,1-1.529.676,2.271,2.271,0,0,1-2.2-2.51,2.268,2.268,0,0,1,2.2-2.5,2,2,0,0,1,1.529.677V40.892Zm-1.787,4.076a.955.955,0,0,0-.963-1.019,1.024,1.024,0,1,0,0,2.047.957.957,0,0,0,.963-1.028" transform="translate(-29.121 63.03)" fill="#169ab2"/><path d="M188.374,46.319l.982.99a2.962,2.962,0,0,1-1.972.741,2.46,2.46,0,0,1-2.6-2.519,2.408,2.408,0,0,1,2.529-2.492c1.538,0,2.446,1.084,2.446,2.927h-3.39a.982.982,0,0,0,.944.751,1.767,1.767,0,0,0,1.065-.4m-1.982-1.287h1.742a.871.871,0,0,0-.825-.658.974.974,0,0,0-.917.658" transform="translate(-31.39 62.457)" fill="#169ab2"/><path d="M196.081,41.044h1.8l1.7,3.038,1.7-3.038h1.8v6.364h-1.8V44l-1.7,3.039L197.878,44v3.409h-1.8Z" transform="translate(-34.405 62.989)" fill="#169ab2"/><path d="M210.32,46.319l.982.99a2.962,2.962,0,0,1-1.972.741,2.46,2.46,0,0,1-2.6-2.519,2.408,2.408,0,0,1,2.529-2.492c1.538,0,2.446,1.084,2.446,2.927h-3.39a.982.982,0,0,0,.944.751,1.768,1.768,0,0,0,1.065-.4m-1.982-1.287h1.742a.871.871,0,0,0-.825-.658.974.974,0,0,0-.917.658" transform="translate(-37.246 62.457)" fill="#169ab2"/><path d="M219.7,40.892v6.474h-1.787V46.8a2,2,0,0,1-1.529.676,2.271,2.271,0,0,1-2.2-2.51,2.268,2.268,0,0,1,2.2-2.5,2,2,0,0,1,1.529.677V40.892Zm-1.787,4.076a.954.954,0,0,0-.963-1.019,1.024,1.024,0,1,0,0,2.047.957.957,0,0,0,.963-1.028" transform="translate(-39.237 63.03)" fill="#169ab2"/><path d="M226.281,46.319l.982.99a2.962,2.962,0,0,1-1.972.741,2.46,2.46,0,0,1-2.6-2.519,2.408,2.408,0,0,1,2.529-2.492c1.538,0,2.446,1.084,2.446,2.927h-3.39a.982.982,0,0,0,.944.751,1.768,1.768,0,0,0,1.065-.4M224.3,45.032h1.742a.871.871,0,0,0-.825-.658.974.974,0,0,0-.917.658" transform="translate(-41.505 62.457)" fill="#169ab2"/><rect width="1.787" height="6.474" transform="translate(186.903 103.922)" fill="#169ab2"/><rect width="1.787" height="6.474" transform="translate(189.709 103.922)" fill="#169ab2"/><path d="M238.144,42.446h1.787v4.789h-1.787Zm1.334-2.047,1.537.26-1.408,1.26H238.44Z" transform="translate(-45.63 63.162)" fill="#169ab2"/><path d="M246.831,44.894v3.047h-1.7V45.31a.724.724,0,0,0-.723-.787.684.684,0,0,0-.685.732v2.686h-1.788V43.152h1.788v.482a1.692,1.692,0,0,1,1.353-.592,1.738,1.738,0,0,1,1.76,1.853" transform="translate(-46.641 62.457)" fill="#169ab2"/><line y2="36.692" transform="translate(136.977 77.439)" fill="none" stroke="#169ab2" stroke-linecap="round" stroke-linejoin="round" stroke-width="1"/></g></svg>